<svg xmlns="http://www.w3.org/2000/svg" width="230" height="51" viewBox="0 0 230 51" fill="none"><path d="M12.672 27.027L17.0826 18.4937C17.1685 18.3169 17.2898 18.1578 17.4413 18.0112C17.5954 17.8672 17.795 17.794 18.0426 17.794H18.8711C19.0303 17.794 19.1692 17.8521 19.2879 17.9683C19.4041 18.0845 19.4622 18.2234 19.4622 18.3826V32.4835C19.4622 32.6451 19.4041 32.7815 19.2879 32.8977C19.1692 33.0165 19.0303 33.0746 18.8711 33.0746H17.9769C17.8152 33.0746 17.6788 33.0165 17.5626 32.8977C17.4464 32.7815 17.3883 32.6451 17.3883 32.4835V22.1364L13.9831 28.7069C13.8669 28.9267 13.7431 29.0984 13.6117 29.2222C13.4804 29.3435 13.3061 29.4066 13.0888 29.4066H12.2577C12.0405 29.4066 11.8636 29.3435 11.7348 29.2222C11.6034 29.0984 11.4797 28.9267 11.3635 28.7069L7.95823 22.1364V32.4835C7.95823 32.6451 7.90013 32.7815 7.78393 32.8977C7.66773 33.0165 7.52879 33.0746 7.36965 33.0746H6.47287C6.31372 33.0746 6.17478 33.0165 6.05858 32.8977C5.94238 32.7815 5.88428 32.6451 5.88428 32.4835V18.3826C5.88428 18.2234 5.94238 18.0845 6.05858 17.9683C6.17478 17.8521 6.31372 17.794 6.47287 17.794H7.30397C7.549 17.794 7.75109 17.8672 7.90266 18.0112C8.05675 18.1578 8.17548 18.3169 8.2639 18.4937" fill="#00358E"></path><path d="M24.2846 26.3728H30.418V26.3071C30.418 25.4179 30.1376 24.7106 29.5768 24.1775C29.0185 23.6471 28.2708 23.3818 27.3412 23.3818C26.9193 23.3818 26.5252 23.45 26.1615 23.589C25.7977 23.7279 25.4794 23.9249 25.2015 24.1775C24.9262 24.4327 24.7064 24.7434 24.5473 25.1046C24.3856 25.4709 24.2997 25.8701 24.2846 26.3071V26.3728ZM22.342 26.3071C22.4001 25.6376 22.5592 25.0112 22.8219 24.4302C23.0846 23.8491 23.4257 23.3389 23.8475 22.9018C24.2694 22.4648 24.7772 22.1238 25.3657 21.8762C25.9543 21.6287 26.6137 21.5049 27.3412 21.5049C28.1268 21.5049 28.8291 21.6312 29.448 21.8863C30.0644 22.1415 30.5923 22.5078 31.0293 22.9903C31.4664 23.4702 31.7998 24.0512 32.0347 24.7358C32.2671 25.4179 32.3833 26.1833 32.3833 27.027V27.6156C32.3833 27.7773 32.3252 27.9162 32.209 28.0299C32.0928 28.1486 31.9539 28.2067 31.7948 28.2067H24.2846V28.3356C24.3149 29.3258 24.6155 30.0862 25.1914 30.6167C25.7649 31.1497 26.4823 31.4149 27.3412 31.4149C28.142 31.4149 28.7407 31.3012 29.1423 31.0764C29.5414 30.8516 29.8648 30.599 30.1123 30.3236C30.2285 30.2074 30.3321 30.1266 30.418 30.0836C30.5064 30.0382 30.6378 30.018 30.8121 30.018H31.4664C31.6255 30.018 31.772 30.0761 31.9034 30.1923C32.0347 30.3085 32.0853 30.4474 32.0549 30.6066C32.012 30.8693 31.8882 31.1547 31.6836 31.4705C31.4815 31.7812 31.186 32.0717 30.7995 32.342C30.4155 32.6123 29.9355 32.8371 29.3596 33.019C28.7836 33.2009 28.1117 33.2918 27.3412 33.2918C26.6137 33.2918 25.9594 33.1655 25.3758 32.9104C24.7948 32.6552 24.2871 32.3066 23.8602 31.862C23.4307 31.4174 23.0846 30.8945 22.8219 30.2908C22.5592 29.687 22.4001 29.0277 22.342 28.3153C22.2687 27.6459 22.2687 26.9765 22.342 26.3071Z" fill="#00358E"></path><path d="M40.6766 21.7221C40.8383 21.7221 40.9747 21.7803 41.0909 21.899C41.2071 22.0152 41.2678 22.1516 41.2678 22.3107V23.0105C41.2678 23.1696 41.2071 23.3086 41.0909 23.4248C40.9747 23.541 40.8383 23.5991 40.6766 23.5991H39.411C37.7362 23.5991 36.9026 24.4377 36.9026 26.11V32.4835C36.9026 32.6452 36.842 32.7816 36.7258 32.8978C36.6096 33.0165 36.4732 33.0746 36.3115 33.0746H35.5031C35.344 33.0746 35.205 33.0165 35.0888 32.8978C34.9726 32.7816 34.9145 32.6452 34.9145 32.4835V22.3107C34.9145 22.1516 34.9726 22.0152 35.0888 21.899C35.205 21.7803 35.344 21.7221 35.5031 21.7221H36.3115C36.4732 21.7221 36.6096 21.7803 36.7258 21.899C36.842 22.0152 36.9026 22.1516 36.9026 22.3107V22.9903C37.1931 22.5532 37.5417 22.2324 37.9484 22.0278C38.3576 21.8257 38.8881 21.7221 39.5424 21.7221" fill="#00358E"></path><path d="M44.279 28.1613C44.3371 28.7448 44.466 29.2399 44.6605 29.6466C44.8575 30.0533 45.0975 30.3893 45.3804 30.6495C45.6659 30.9122 45.9816 31.1067 46.3302 31.228C46.6814 31.3518 47.0376 31.4149 47.4013 31.4149C48.0985 31.4149 48.6947 31.2836 49.1898 31.0208C49.685 30.7606 50.0715 30.3236 50.3468 29.7123C50.4504 29.4799 50.5539 29.3233 50.6626 29.2424C50.7737 29.1641 50.9076 29.1212 51.0668 29.1212H51.7235C51.8827 29.1212 52.0242 29.1793 52.1479 29.298C52.2717 29.4142 52.3248 29.5506 52.3121 29.7123C52.297 30.0609 52.1833 30.4424 51.9736 30.8566C51.7614 31.2735 51.4507 31.6574 51.0339 32.0136C50.6196 32.3723 50.1119 32.6729 49.5056 32.9205C48.9019 33.1681 48.1996 33.2918 47.4013 33.2918C46.6005 33.2918 45.8907 33.1605 45.2718 32.8978C44.6529 32.6376 44.13 32.2814 43.7005 31.8292C43.2711 31.3795 42.9377 30.8465 42.6977 30.2352C42.4577 29.6239 42.3213 28.9696 42.2935 28.2699C42.2783 28.04 42.2682 27.752 42.2606 27.4085C42.2531 27.0674 42.2632 26.7719 42.2935 26.5243C42.3516 25.8271 42.5006 25.1728 42.7406 24.5615C42.9806 23.9502 43.3115 23.4172 43.7334 22.9675C44.1552 22.5153 44.6706 22.1592 45.2844 21.8964C45.8932 21.6363 46.6005 21.5049 47.4013 21.5049C48.1996 21.5049 48.9019 21.6287 49.5056 21.8762C50.1119 22.1238 50.6196 22.4244 51.0339 22.7806C51.4507 23.1368 51.7614 23.5233 51.9736 23.9376C52.1833 24.3518 52.297 24.7358 52.3121 25.0844C52.3248 25.2436 52.2717 25.3825 52.1479 25.4987C52.0242 25.6149 51.8827 25.673 51.7235 25.673H51.0668C50.9076 25.673 50.7737 25.6326 50.6626 25.5543C50.5539 25.4734 50.4504 25.3168 50.3468 25.0844C50.0715 24.4731 49.685 24.0361 49.1898 23.7734C48.6947 23.5132 48.0985 23.3818 47.4013 23.3818C47.0376 23.3818 46.6763 23.4424 46.3201 23.5687C45.964 23.69 45.6431 23.8845 45.3602 24.1447C45.0748 24.4074 44.8373 24.7434 44.6403 25.1501C44.4432 25.5568 44.322 26.0519 44.279 26.6355C44.2361 27.1735 44.2361 27.6813 44.279 28.1613Z" fill="#00358E"></path><path d="M58.0313 31.4149C58.5542 31.4149 59.0341 31.3341 59.4712 31.1749C59.9082 31.0133 60.282 30.7935 60.5953 30.508C60.9085 30.2251 61.1485 29.8866 61.3152 29.4925C61.482 29.101 61.5678 28.664 61.5678 28.184V27.6383L58.9912 28.0526C58.0742 28.1991 57.3467 28.4315 56.8086 28.7498C56.2705 29.0707 56.0002 29.4875 56.0002 29.9952C56.0002 30.1569 56.0356 30.316 56.1089 30.4752C56.1821 30.6369 56.2983 30.7884 56.46 30.9349C56.6191 31.0789 56.8263 31.1977 57.0814 31.2836C57.334 31.372 57.6523 31.4149 58.0313 31.4149ZM54.0147 30.215C54.0147 29.6315 54.1309 29.1237 54.3633 28.6867C54.5957 28.2497 54.9165 27.8783 55.3232 27.5727C55.7299 27.267 56.2074 27.0194 56.753 26.83C57.2987 26.6405 57.8772 26.4965 58.4885 26.393L61.5678 25.8928V25.6073C61.5678 24.8647 61.3228 24.3089 60.8353 23.9376C60.3477 23.5662 59.7414 23.3818 59.0139 23.3818C58.3723 23.3818 57.8898 23.498 57.5614 23.7304C57.233 23.9628 56.9526 24.2407 56.7202 24.559C56.6343 24.6777 56.5383 24.756 56.4373 24.8015C56.3337 24.8444 56.1973 24.8647 56.023 24.8647H55.3662C55.207 24.8647 55.0656 24.8091 54.9418 24.6903C54.818 24.5767 54.7624 24.4377 54.7776 24.2761C54.8079 23.9578 54.9342 23.6294 55.159 23.2934C55.3864 22.9599 55.6921 22.6619 56.076 22.3991C56.4625 22.1364 56.9071 21.9217 57.4073 21.755C57.91 21.5883 58.4455 21.5049 59.0139 21.5049C59.6682 21.5049 60.2745 21.5984 60.8353 21.7878C61.3961 21.9773 61.876 22.2552 62.2752 22.6164C62.6768 22.9827 62.9875 23.4323 63.2149 23.9704C63.4397 24.5085 63.5534 25.1274 63.5534 25.8271V32.4835C63.5534 32.6451 63.4953 32.7816 63.3791 32.8978C63.2629 33.0165 63.1239 33.0721 62.9623 33.0721H62.1564C61.9948 33.0721 61.8583 33.0165 61.7421 32.8978C61.6234 32.7816 61.5678 32.6451 61.5678 32.4835V31.5892C61.4365 31.8646 61.2319 32.1096 60.9565 32.3193C60.6786 32.5315 60.3629 32.7083 60.0067 32.8548C59.648 33.0013 59.2766 33.1099 58.8927 33.1832C58.5062 33.2565 58.1475 33.2918 57.8115 33.2918C57.2456 33.2918 56.7252 33.211 56.2503 33.0518C55.7779 32.8927 55.3788 32.6755 55.0504 32.4077C54.722 32.1374 54.4694 31.814 54.2875 31.4376C54.1056 31.0587 54.0147 30.6495 54.0147 30.215Z" fill="#00358E"></path><path d="M76.7145 32.4835C76.7145 32.6451 76.6564 32.7816 76.5402 32.8978C76.424 33.014 76.285 33.0721 76.1259 33.0721H75.3175C75.1584 33.0721 75.0194 33.014 74.9032 32.8978C74.787 32.7816 74.7289 32.6451 74.7289 32.4835V26.7214C74.7289 25.5998 74.4586 24.7636 73.9206 24.2104C73.3825 23.6597 72.6322 23.3818 71.6723 23.3818C70.7553 23.3818 70.0177 23.6597 69.4569 24.2104C68.8961 24.7636 68.6157 25.5998 68.6157 26.7214V32.4835C68.6157 32.6451 68.5576 32.7816 68.4439 32.8978C68.3252 33.014 68.1862 33.0721 68.0271 33.0721H67.2187C67.0596 33.0721 66.9206 33.014 66.8044 32.8978C66.6882 32.7816 66.6301 32.6451 66.6301 32.4835V22.3133C66.6301 22.1516 66.6882 22.0152 66.8044 21.899C66.9206 21.7802 67.0596 21.7221 67.2187 21.7221H68.0271C68.1862 21.7221 68.3252 21.7802 68.4439 21.899C68.5576 22.0152 68.6157 22.1516 68.6157 22.3133V22.9877C68.8936 22.6265 69.3053 22.2855 69.851 21.9748C70.3966 21.6615 71.1115 21.5049 72.0007 21.5049C72.6828 21.5049 73.3168 21.616 73.9003 21.8434C74.4814 22.0682 74.979 22.389 75.3958 22.8033C75.8101 23.2176 76.1335 23.7304 76.3659 24.3417C76.5983 24.9531 76.7145 25.6376 76.7145 26.393" fill="#00358E"></path><path d="M82.5651 29.2525C82.5651 29.5304 82.5904 29.7881 82.6409 30.0281C82.6915 30.268 82.7824 30.4752 82.9138 30.6495C83.0451 30.8263 83.2295 30.9602 83.4695 31.0537C83.712 31.1497 84.0202 31.1977 84.3991 31.1977H85.5561C85.7152 31.1977 85.8542 31.2558 85.9704 31.3694C86.0866 31.4882 86.1447 31.6246 86.1447 31.7862V32.4835C86.1447 32.6451 86.0866 32.7815 85.9704 32.8977C85.8542 33.0139 85.7152 33.072 85.5561 33.072H84.1793C82.9138 33.072 81.9968 32.7462 81.4309 32.0919C80.8625 31.4376 80.5796 30.4903 80.5796 29.2525V23.6016H78.9629C78.8037 23.6016 78.6648 23.5409 78.5486 23.4247C78.4324 23.3085 78.3743 23.1721 78.3743 23.0105V22.3132C78.3743 22.1516 78.4324 22.0152 78.5486 21.899C78.6648 21.7802 78.8037 21.7221 78.9629 21.7221H80.5796V18.1653C80.5796 18.0037 80.6352 17.8672 80.7514 17.751C80.8701 17.6323 81.0091 17.5742 81.1682 17.5742H81.9766C82.1357 17.5742 82.2746 17.6323 82.3908 17.751C82.507 17.8672 82.5651 18.0037 82.5651 18.1653V21.7221H85.3388C85.498 21.7221 85.6344 21.7802 85.7531 21.899C85.8668 22.0152 85.9249 22.1516 85.9249 22.3132V23.0105C85.9249 23.1721 85.8668 23.3085 85.7531 23.4247C85.6344 23.5409 85.498 23.6016 85.3388 23.6016H82.5651" fill="#00358E"></path><path d="M90.2042 32.4835C90.2042 32.6451 90.1461 32.7815 90.0299 32.8977C89.9137 33.0139 89.7747 33.072 89.6156 33.072H88.8072C88.6481 33.072 88.5091 33.0139 88.3929 32.8977C88.2767 32.7815 88.2186 32.6451 88.2186 32.4835V22.3132C88.2186 22.1516 88.2767 22.0152 88.3929 21.899C88.5091 21.7802 88.6481 21.7221 88.8072 21.7221H89.6156C89.7747 21.7221 89.9137 21.7802 90.0299 21.899C90.1461 22.0152 90.2042 22.1516 90.2042 22.3132V32.4835ZM90.4214 19.4082C90.4214 19.5699 90.3659 19.7088 90.2471 19.8225C90.1309 19.9412 89.992 19.9993 89.8328 19.9993H88.59C88.4283 19.9993 88.2919 19.9412 88.1757 19.8225C88.0595 19.7088 87.9989 19.5699 87.9989 19.4082V18.1653C87.9989 18.0037 88.0595 17.8672 88.1757 17.751C88.2919 17.6323 88.4283 17.5742 88.59 17.5742H89.8328C89.992 17.5742 90.1309 17.6323 90.2471 17.751C90.3659 17.8672 90.4214 18.0037 90.4214 18.1653" fill="#00358E"></path><path d="M95.3549 32.4835C95.3549 32.6451 95.2968 32.7815 95.1806 32.8977C95.0644 33.0139 94.9254 33.072 94.7663 33.072H93.9579C93.7988 33.072 93.6598 33.0139 93.5436 32.8977C93.4274 32.7815 93.3693 32.6451 93.3693 32.4835V18.1653C93.3693 18.0037 93.4274 17.8672 93.5436 17.751C93.6598 17.6323 93.7988 17.5742 93.9579 17.5742H94.7663C94.9254 17.5742 95.0644 17.6323 95.1806 17.751C95.2968 17.8672 95.3549 18.0037 95.3549 18.1653" fill="#00358E"></path><path d="M112.184 27.3756L109.784 21.1537L107.382 27.3756H112.184ZM110.984 17.794C111.217 17.794 111.391 17.8546 111.507 17.9809C111.623 18.1047 111.727 18.2891 111.813 18.5367L117.161 32.3319C117.176 32.3748 117.183 32.4254 117.183 32.4835C117.183 32.6451 117.125 32.7815 117.009 32.8977C116.893 33.0165 116.754 33.0746 116.595 33.0746H115.021C114.73 33.0746 114.528 33.0114 114.412 32.8876C114.293 32.7639 114.215 32.6451 114.172 32.5289L113.232 30.1038H106.336L105.396 32.5289C105.353 32.6451 105.273 32.7639 105.156 32.8876C105.04 33.0114 104.836 33.0746 104.545 33.0746H102.974C102.812 33.0746 102.676 33.0165 102.559 32.8977C102.441 32.7815 102.383 32.6451 102.383 32.4835C102.383 32.4254 102.39 32.3748 102.405 32.3319L107.753 18.5367C107.842 18.2891 107.943 18.1047 108.059 17.9809C108.175 17.8546 108.349 17.794 108.582 17.794" fill="#00358E"></path><path d="M129.516 32.4835C129.516 32.6451 129.458 32.7816 129.341 32.8978C129.225 33.014 129.086 33.0721 128.927 33.0721H127.268C127.108 33.0721 126.969 33.014 126.853 32.8978C126.737 32.7816 126.679 32.6451 126.679 32.4835V26.9411C126.679 26.0671 126.474 25.3674 126.068 24.8444C125.658 24.3215 125.034 24.0588 124.191 24.0588C123.418 24.0588 122.811 24.3215 122.367 24.8444C121.922 25.3674 121.702 26.0671 121.702 26.9411V32.4835C121.702 32.6451 121.642 32.7816 121.526 32.8978C121.409 33.014 121.27 33.0721 121.111 33.0721H119.454C119.293 33.0721 119.156 33.014 119.037 32.8978C118.921 32.7816 118.863 32.6451 118.863 32.4835V22.3133C118.863 22.1516 118.921 22.0152 119.037 21.899C119.156 21.7802 119.293 21.7221 119.454 21.7221H121.111C121.27 21.7221 121.409 21.7802 121.526 21.899C121.642 22.0152 121.702 22.1516 121.702 22.3133V22.8134C122.079 22.4345 122.523 22.1238 123.034 21.8762C123.541 21.6287 124.145 21.5049 124.845 21.5049C125.732 21.5049 126.474 21.6438 127.07 21.9192C127.667 22.1945 128.147 22.5659 128.513 23.0332C128.874 23.498 129.134 24.0411 129.286 24.6575C129.44 25.2764 129.516 25.9282 129.516 26.6127" fill="#00358E"></path><path d="M134.646 26.787C134.601 27.1938 134.601 27.603 134.646 28.0097C134.732 28.9545 135.023 29.634 135.518 30.0508C136.013 30.4651 136.617 30.6722 137.329 30.6722C138.044 30.6722 138.643 30.4626 139.13 30.0382C139.618 29.6188 139.898 29.0126 139.972 28.2269C139.999 28.0097 140.014 27.7318 140.014 27.3984C140.014 27.0649 139.999 26.787 139.972 26.5673C139.898 25.812 139.618 25.2158 139.13 24.7788C138.643 24.3418 138.044 24.1245 137.329 24.1245C136.617 24.1245 136.013 24.3316 135.518 24.7459C135.023 25.1602 134.732 25.8397 134.646 26.787ZM136.675 21.5049C137.127 21.5049 137.531 21.5478 137.887 21.6363C138.244 21.7221 138.557 21.8308 138.825 21.9621C139.095 22.0935 139.322 22.235 139.512 22.389C139.701 22.5406 139.855 22.6821 139.972 22.8134V18.1654C139.972 18.0037 140.03 17.8673 140.146 17.7511C140.262 17.6349 140.401 17.5768 140.56 17.5768H142.22C142.379 17.5768 142.518 17.6349 142.634 17.7511C142.75 17.8673 142.808 18.0037 142.808 18.1654V32.4835C142.808 32.6452 142.75 32.7816 142.634 32.8978C142.518 33.0165 142.379 33.0746 142.22 33.0746H140.56C140.401 33.0746 140.262 33.0165 140.146 32.8978C140.03 32.7816 139.972 32.6452 139.972 32.4835V31.9808C139.855 32.1121 139.701 32.2536 139.512 32.4077C139.322 32.5618 139.095 32.7007 138.825 32.8346C138.557 32.9634 138.244 33.0746 137.887 33.1605C137.531 33.2489 137.127 33.2918 136.675 33.2918C135.947 33.2918 135.288 33.1504 134.7 32.8649C134.111 32.582 133.608 32.2031 133.194 31.7307C132.78 31.2583 132.451 30.7127 132.211 30.0938C131.971 29.4749 131.837 28.8307 131.807 28.1613C131.792 27.944 131.787 27.6889 131.787 27.3984C131.787 27.1079 131.792 26.8527 131.807 26.6355C131.837 25.9661 131.971 25.3219 132.211 24.703C132.451 24.0841 132.78 23.5384 133.194 23.0661C133.608 22.5937 134.111 22.2147 134.7 21.9293C135.288 21.6464 135.947 21.5049 136.675 21.5049Z" fill="#00358E"></path><path d="M148.55 32.4835C148.55 32.6451 148.49 32.7815 148.373 32.8977C148.257 33.0139 148.121 33.072 147.959 33.072H146.3C146.14 33.072 146.001 33.0139 145.885 32.8977C145.769 32.7815 145.711 32.6451 145.711 32.4835V22.3132C145.711 22.1516 145.769 22.0152 145.885 21.899C146.001 21.7802 146.14 21.7221 146.3 21.7221H147.959C148.121 21.7221 148.257 21.7802 148.373 21.899C148.49 22.0152 148.55 22.1516 148.55 22.3132V32.4835ZM148.068 17.5742C148.229 17.5742 148.366 17.6323 148.485 17.751C148.601 17.8672 148.659 18.0037 148.659 18.1653V19.8679C148.659 20.0271 148.601 20.166 148.485 20.2822C148.366 20.3984 148.229 20.4565 148.068 20.4565H146.191C146.032 20.4565 145.893 20.3984 145.777 20.2822C145.66 20.166 145.602 20.0271 145.602 19.8679V18.1653C145.602 18.0037 145.66 17.8672 145.777 17.751C145.893 17.6323 146.032 17.5742 146.191 17.5742" fill="#00358E"></path><path d="M162.106 32.4835C162.106 32.6451 162.045 32.7816 161.929 32.8978C161.812 33.014 161.674 33.0721 161.514 33.0721H159.855C159.696 33.0721 159.557 33.014 159.44 32.8978C159.324 32.7816 159.266 32.6451 159.266 32.4835V26.9411C159.266 26.0671 159.064 25.3674 158.655 24.8444C158.248 24.3215 157.622 24.0588 156.778 24.0588C156.007 24.0588 155.399 24.3215 154.957 24.8444C154.512 25.3674 154.29 26.0671 154.29 26.9411V32.4835C154.29 32.6451 154.232 32.7816 154.115 32.8978C153.999 33.014 153.86 33.0721 153.701 33.0721H152.041C151.882 33.0721 151.743 33.014 151.627 32.8978C151.511 32.7816 151.453 32.6451 151.453 32.4835V22.3133C151.453 22.1516 151.511 22.0152 151.627 21.899C151.743 21.7802 151.882 21.7221 152.041 21.7221H153.701C153.86 21.7221 153.999 21.7802 154.115 21.899C154.232 22.0152 154.29 22.1516 154.29 22.3133V22.8134C154.669 22.4345 155.111 22.1238 155.621 21.8762C156.131 21.6287 156.735 21.5049 157.432 21.5049C158.321 21.5049 159.064 21.6438 159.66 21.9192C160.256 22.1945 160.736 22.5659 161.1 23.0332C161.464 23.498 161.722 24.0411 161.876 24.6575C162.027 25.2764 162.106 25.9282 162.106 26.6127" fill="#00358E"></path><path d="M168.544 30.6722C169.037 30.6722 169.477 30.604 169.863 30.4651C170.25 30.3262 170.573 30.1417 170.836 29.9068C171.096 29.6744 171.293 29.4142 171.424 29.1237C171.556 28.8307 171.621 28.5326 171.621 28.2269V28.0097L168.653 28.5326C168.054 28.6362 167.627 28.7827 167.365 28.9797C167.102 29.1768 166.971 29.442 166.971 29.778C166.971 30.0836 167.127 30.3085 167.441 30.4525C167.754 30.599 168.12 30.6722 168.544 30.6722ZM164.897 24.516C164.955 24.2104 165.091 23.8845 165.301 23.5334C165.511 23.1848 165.811 22.8589 166.195 22.5532C166.582 22.2476 167.054 21.995 167.615 21.7979C168.176 21.6034 168.825 21.5049 169.57 21.5049C170.31 21.5049 170.98 21.6034 171.576 21.7979C172.175 21.995 172.687 22.2829 173.117 22.6619C173.546 23.0408 173.875 23.5157 174.11 24.0917C174.342 24.6651 174.458 25.3244 174.458 26.0671V32.4835C174.458 32.6451 174.4 32.7816 174.284 32.8978C174.168 33.0165 174.029 33.0721 173.87 33.0721H172.21C172.048 33.0721 171.912 33.0165 171.796 32.8978C171.679 32.7816 171.621 32.6451 171.621 32.4835V31.7635C171.316 32.1854 170.874 32.5466 170.3 32.8447C169.724 33.1428 168.994 33.2918 168.107 33.2918C167.481 33.2918 166.92 33.2085 166.425 33.0392C165.93 32.8725 165.516 32.6376 165.182 32.3319C164.846 32.0262 164.589 31.665 164.407 31.2507C164.225 30.8364 164.134 30.3817 164.134 29.8866C164.134 28.8812 164.49 28.0981 165.202 27.5297C165.915 26.9613 166.87 26.5774 168.062 26.3728L171.621 25.7614C171.621 25.1653 171.424 24.7434 171.033 24.4958C170.639 24.2483 170.151 24.1245 169.57 24.1245C169.204 24.1245 168.921 24.175 168.716 24.2761C168.514 24.3796 168.317 24.516 168.128 24.6929C167.996 24.8091 167.878 24.8874 167.769 24.9329C167.66 24.9758 167.539 24.9985 167.408 24.9985H165.377C165.233 24.9985 165.109 24.9531 165.008 24.8647C164.904 24.7788 164.869 24.6626 164.897 24.516Z" fill="#00358E"></path><path d="M209.049 4.48438C220.601 4.48438 230 13.8837 230 25.433C230 36.985 220.601 46.3842 209.049 46.3842C197.499 46.3842 188.1 36.985 188.1 25.433C188.1 13.8837 197.499 4.48438 209.049 4.48438Z" fill="#00358E"></path><path d="M214.78 18.7338L213.464 21.0187C214.958 23.6192 217.477 28.0135 218.525 29.8557L218.538 29.848L219.515 31.5427C220.177 32.6877 221.642 33.0795 222.787 32.418C223.932 31.7564 224.324 30.2933 223.663 29.1483L222.596 27.301C222.121 26.4613 221.619 25.5962 221.123 24.7464C221.123 24.7464 218.151 19.8788 217.151 18.2834C216.953 18.0035 216.594 17.8203 216.192 17.8203C215.719 17.8203 215.184 18.0748 214.78 18.7338Z" fill="url(#paint0_linear_9069_11233)"></path><path d="M210.38 17.3745C210.367 17.3872 209.998 17.9241 209.929 18.0335C208.998 19.5297 203.418 28.8832 203.418 28.8832C202.757 30.0307 203.148 31.4938 204.296 32.1554C205.441 32.8169 206.904 32.4251 207.566 31.2801L214.779 18.7307C215.527 17.5144 216.721 17.6722 217.151 18.2803C214.962 15.199 212.296 15.1277 210.38 17.3745Z" fill="white"></path><path d="M203.489 19.7161C202.342 19.0546 200.878 19.4464 200.217 20.5914L195.128 29.1434C194.469 30.2884 194.861 31.7515 196.006 32.413C197.151 33.0746 198.616 32.6828 199.278 31.5378L204.364 22.9858C205.026 21.8408 204.634 20.3777 203.489 19.7161Z" fill="#029DDE"></path><defs><linearGradient id="paint0_linear_9069_11233" x1="218.56" y1="32.7367" x2="218.56" y2="17.8155" gradientUnits="userSpaceOnUse"><stop stop-color="white"></stop><stop offset="0.125" stop-color="white"></stop><stop offset="0.1875" stop-color="white"></stop><stop offset="0.195312" stop-color="white"></stop><stop offset="0.203125" stop-color="#FEFEFE"></stop><stop offset="0.210938" stop-color="#FDFEFE"></stop><stop offset="0.21875" stop-color="#FDFDFE"></stop><stop offset="0.226562" stop-color="#FCFCFD"></stop><stop offset="0.234375" stop-color="#FBFBFD"></stop><stop offset="0.242188" stop-color="#FAFBFC"></stop><stop offset="0.246094" stop-color="#F9FAFB"></stop><stop offset="0.25" stop-color="#F8F9FB"></stop><stop offset="0.253906" stop-color="#F8F9FB"></stop><stop offset="0.257812" stop-color="#F7F8FA"></stop><stop offset="0.261719" stop-color="#F7F8FA"></stop><stop offset="0.265625" stop-color="#F6F7FA"></stop><stop offset="0.269531" stop-color="#F6F7F9"></stop><stop offset="0.273438" stop-color="#F5F6F9"></stop><stop offset="0.277344" stop-color="#F4F6F9"></stop><stop offset="0.28125" stop-color="#F4F5F8"></stop><stop offset="0.285156" stop-color="#F3F5F8"></stop><stop offset="0.289062" stop-color="#F3F4F8"></stop><stop offset="0.292969" stop-color="#F2F3F7"></stop><stop offset="0.296875" stop-color="#F1F3F7"></stop><stop offset="0.300781" stop-color="#F1F2F6"></stop><stop offset="0.304688" stop-color="#F0F2F6"></stop><stop offset="0.308594" stop-color="#EFF1F6"></stop><stop offset="0.3125" stop-color="#EEF0F5"></stop><stop offset="0.316406" stop-color="#EEF0F5"></stop><stop offset="0.320312" stop-color="#EDEFF4"></stop><stop offset="0.324219" stop-color="#ECEEF4"></stop><stop offset="0.328125" stop-color="#ECEEF3"></stop><stop offset="0.332031" stop-color="#EBEDF3"></stop><stop offset="0.335938" stop-color="#EAEDF3"></stop><stop offset="0.339844" stop-color="#E9ECF2"></stop><stop offset="0.34375" stop-color="#E9EBF2"></stop><stop offset="0.347656" stop-color="#E8EBF1"></stop><stop offset="0.351562" stop-color="#E7EAF1"></stop><stop offset="0.355469" stop-color="#E6E9F0"></stop><stop offset="0.359375" stop-color="#E6E8F0"></stop><stop offset="0.363281" stop-color="#E5E8EF"></stop><stop offset="0.367188" stop-color="#E4E7EF"></stop><stop offset="0.371094" stop-color="#E3E6EE"></stop><stop offset="0.375" stop-color="#E2E6EE"></stop><stop offset="0.378906" stop-color="#E1E5ED"></stop><stop offset="0.382812" stop-color="#E1E4ED"></stop><stop offset="0.386719" stop-color="#E0E3EC"></stop><stop offset="0.390625" stop-color="#DFE3EC"></stop><stop offset="0.394531" stop-color="#DEE2EB"></stop><stop offset="0.398438" stop-color="#DDE1EB"></stop><stop offset="0.402344" stop-color="#DCE0EA"></stop><stop offset="0.40625" stop-color="#DCE0EA"></stop><stop offset="0.410156" stop-color="#DBDFE9"></stop><stop offset="0.414062" stop-color="#DADEE9"></stop><stop offset="0.417969" stop-color="#D9DDE8"></stop><stop offset="0.421875" stop-color="#D8DDE8"></stop><stop offset="0.425781" stop-color="#D7DCE7"></stop><stop offset="0.429688" stop-color="#D6DBE7"></stop><stop offset="0.433594" stop-color="#D5DAE6"></stop><stop offset="0.4375" stop-color="#D4D9E6"></stop><stop offset="0.441406" stop-color="#D4D9E5"></stop><stop offset="0.445312" stop-color="#D3D8E5"></stop><stop offset="0.449219" stop-color="#D2D7E4"></stop><stop offset="0.453125" stop-color="#D1D6E3"></stop><stop offset="0.457031" stop-color="#D0D5E3"></stop><stop offset="0.460938" stop-color="#CFD4E2"></stop><stop offset="0.464844" stop-color="#CED4E2"></stop><stop offset="0.46875" stop-color="#CDD3E1"></stop><stop offset="0.472656" stop-color="#CCD2E1"></stop><stop offset="0.476562" stop-color="#CBD1E0"></stop><stop offset="0.480469" stop-color="#CAD0E0"></stop><stop offset="0.484375" stop-color="#C9CFDF"></stop><stop offset="0.488281" stop-color="#C8CEDE"></stop><stop offset="0.492188" stop-color="#C7CEDE"></stop><stop offset="0.496094" stop-color="#C6CDDD"></stop><stop offset="0.5" stop-color="#C5CCDD"></stop><stop offset="0.503906" stop-color="#C4CBDC"></stop><stop offset="0.507812" stop-color="#C3CADB"></stop><stop offset="0.511719" stop-color="#C2C9DB"></stop><stop offset="0.515625" stop-color="#C1C8DA"></stop><stop offset="0.519531" stop-color="#C0C7DA"></stop><stop offset="0.523438" stop-color="#BFC6D9"></stop><stop offset="0.527344" stop-color="#BEC5D8"></stop><stop offset="0.53125" stop-color="#BDC5D8"></stop><stop offset="0.535156" stop-color="#BCC4D7"></stop><stop offset="0.539062" stop-color="#BBC3D7"></stop><stop offset="0.542969" stop-color="#BAC2D6"></stop><stop offset="0.546875" stop-color="#B9C1D5"></stop><stop offset="0.550781" stop-color="#B8C0D5"></stop><stop offset="0.554687" stop-color="#B7BFD4"></stop><stop offset="0.558594" stop-color="#B6BED3"></stop><stop offset="0.5625" stop-color="#B5BDD3"></stop><stop offset="0.566406" stop-color="#B3BCD2"></stop><stop offset="0.570312" stop-color="#B2BBD1"></stop><stop offset="0.574219" stop-color="#B1BAD1"></stop><stop offset="0.578125" stop-color="#B0B9D0"></stop><stop offset="0.582031" stop-color="#AFB8D0"></stop><stop offset="0.585938" stop-color="#AEB7CF"></stop><stop offset="0.589844" stop-color="#ADB6CE"></stop><stop offset="0.59375" stop-color="#ACB5CE"></stop><stop offset="0.597656" stop-color="#ABB4CD"></stop><stop offset="0.601562" stop-color="#AAB3CC"></stop><stop offset="0.605469" stop-color="#A8B2CC"></stop><stop offset="0.609375" stop-color="#A7B1CB"></stop><stop offset="0.613281" stop-color="#A6B0CA"></stop><stop offset="0.617188" stop-color="#A5AFCA"></stop><stop offset="0.621094" stop-color="#A4AEC9"></stop><stop offset="0.625" stop-color="#A3ADC8"></stop><stop offset="0.628906" stop-color="#A2ACC8"></stop><stop offset="0.632812" stop-color="#A1ABC7"></stop><stop offset="0.636719" stop-color="#9FAAC6"></stop><stop offset="0.640625" stop-color="#9EA9C5"></stop><stop offset="0.644531" stop-color="#9DA8C5"></stop><stop offset="0.648438" stop-color="#9CA7C4"></stop><stop offset="0.652344" stop-color="#9BA6C3"></stop><stop offset="0.65625" stop-color="#9AA5C3"></stop><stop offset="0.660156" stop-color="#98A4C2"></stop><stop offset="0.664062" stop-color="#97A3C1"></stop><stop offset="0.667969" stop-color="#96A2C1"></stop><stop offset="0.671875" stop-color="#95A1C0"></stop><stop offset="0.675781" stop-color="#94A0BF"></stop><stop offset="0.679688" stop-color="#939FBF"></stop><stop offset="0.683594" stop-color="#919EBE"></stop><stop offset="0.6875" stop-color="#909DBD"></stop><stop offset="0.691406" stop-color="#8F9CBC"></stop><stop offset="0.695312" stop-color="#8E9BBC"></stop><stop offset="0.699219" stop-color="#8C9ABB"></stop><stop offset="0.703125" stop-color="#8B99BA"></stop><stop offset="0.707031" stop-color="#8A98B9"></stop><stop offset="0.710938" stop-color="#8996B9"></stop><stop offset="0.714844" stop-color="#8895B8"></stop><stop offset="0.71875" stop-color="#8694B7"></stop><stop offset="0.722656" stop-color="#8593B7"></stop><stop offset="0.726562" stop-color="#8492B6"></stop><stop offset="0.730469" stop-color="#8391B5"></stop><stop offset="0.734375" stop-color="#8190B4"></stop><stop offset="0.738281" stop-color="#808FB4"></stop><stop offset="0.742188" stop-color="#7F8EB3"></stop><stop offset="0.746094" stop-color="#7E8DB2"></stop><stop offset="0.75" stop-color="#7C8BB1"></stop><stop offset="0.753906" stop-color="#7B8AB1"></stop><stop offset="0.757812" stop-color="#7A89B0"></stop><stop offset="0.761719" stop-color="#7988AF"></stop><stop offset="0.765625" stop-color="#7787AE"></stop><stop offset="0.769531" stop-color="#7686AE"></stop><stop offset="0.773438" stop-color="#7585AD"></stop><stop offset="0.777344" stop-color="#7484AC"></stop><stop offset="0.78125" stop-color="#7282AB"></stop><stop offset="0.785156" stop-color="#7181AB"></stop><stop offset="0.789062" stop-color="#7080AA"></stop><stop offset="0.792969" stop-color="#6E7FA9"></stop><stop offset="0.796875" stop-color="#6D7EA8"></stop><stop offset="0.800781" stop-color="#6C7DA7"></stop><stop offset="0.804688" stop-color="#6B7CA7"></stop><stop offset="0.808594" stop-color="#697AA6"></stop><stop offset="0.8125" stop-color="#6879A5"></stop><stop offset="0.816406" stop-color="#6778A4"></stop><stop offset="0.820312" stop-color="#6577A4"></stop><stop offset="0.824219" stop-color="#6476A3"></stop><stop offset="0.828125" stop-color="#6375A2"></stop><stop offset="0.832031" stop-color="#6173A1"></stop><stop offset="0.835938" stop-color="#6072A0"></stop><stop offset="0.839844" stop-color="#5F71A0"></stop><stop offset="0.84375" stop-color="#5D709F"></stop><stop offset="0.847656" stop-color="#5C6F9E"></stop><stop offset="0.851562" stop-color="#5B6E9D"></stop><stop offset="0.855469" stop-color="#596C9C"></stop><stop offset="0.859375" stop-color="#586B9C"></stop><stop offset="0.863281" stop-color="#576A9B"></stop><stop offset="0.867188" stop-color="#55699A"></stop><stop offset="0.871094" stop-color="#546899"></stop><stop offset="0.875" stop-color="#526698"></stop><stop offset="0.878906" stop-color="#516598"></stop><stop offset="0.882812" stop-color="#506497"></stop><stop offset="0.886719" stop-color="#4E6396"></stop><stop offset="0.890625" stop-color="#4D6295"></stop><stop offset="0.894531" stop-color="#4C6094"></stop><stop offset="0.898438" stop-color="#4A5F94"></stop><stop offset="0.902344" stop-color="#495E93"></stop><stop offset="0.90625" stop-color="#485D92"></stop><stop offset="0.910156" stop-color="#465B91"></stop><stop offset="0.914062" stop-color="#455A90"></stop><stop offset="0.917969" stop-color="#43598F"></stop><stop offset="0.921875" stop-color="#42588F"></stop><stop offset="0.925781" stop-color="#41568E"></stop><stop offset="0.929688" stop-color="#3F558D"></stop><stop offset="0.933594" stop-color="#3E548C"></stop><stop offset="0.9375" stop-color="#3C538B"></stop><stop offset="0.941406" stop-color="#3B518A"></stop><stop offset="0.945313" stop-color="#39508A"></stop><stop offset="0.949219" stop-color="#384F89"></stop><stop offset="0.953125" stop-color="#374E88"></stop><stop offset="0.957031" stop-color="#354C87"></stop><stop offset="0.960938" stop-color="#344B86"></stop><stop offset="0.964844" stop-color="#324A85"></stop><stop offset="0.96875" stop-color="#314985"></stop><stop offset="0.972656" stop-color="#304784"></stop><stop offset="0.976562" stop-color="#2E4683"></stop><stop offset="0.980469" stop-color="#2D4582"></stop><stop offset="0.984375" stop-color="#2B4481"></stop><stop offset="0.988281" stop-color="#2A4280"></stop><stop offset="0.992188" stop-color="#28417F"></stop><stop offset="0.996094" stop-color="#27407F"></stop><stop offset="1" stop-color="#263F7E"></stop></linearGradient></defs></svg>